<?xml version="1.0" encoding="utf-8"?>
<!-- Generator: Adobe Illustrator 26.1.0, SVG Export Plug-In . SVG Version: 6.00 Build 0)  -->
<svg version="1.1" id="Capa_1" xmlns="http://www.w3.org/2000/svg" xmlns:xlink="http://www.w3.org/1999/xlink" x="0px" y="0px"
	 viewBox="0 0 399 62" style="enable-background:new 0 0 399 62;" xml:space="preserve">
<style type="text/css">
	.st0{fill:#662781;}
	.st1{fill:#2496D3;}
</style>
<g>
	<g>
		<g>
			<polygon class="st0" points="238.6,50.8 213.7,7.6 213.2,6.7 212.7,7.6 187.5,50.8 187,51.7 188,51.7 192,51.7 192.4,51.7 
				192.6,51.4 213.2,16 230.9,46.9 228,46.9 226.3,43.7 224.4,40.5 224.3,40.2 223.9,40.2 209.4,40.2 209.1,40.2 208.9,40.5 
				207.1,43.7 206.6,44.6 207.6,44.6 221.4,44.6 225.3,51.4 225.4,51.7 225.8,51.7 238.1,51.7 239.1,51.7 			"/>
			<polygon class="st1" points="203,47.4 213.1,29.2 218.2,38.1 223,38.1 213.1,20.8 195.9,51.7 223,51.7 220.5,47.4 			"/>
			<polygon class="st0" points="213.3,38.1 211,38.1 212.2,36 213.3,34 214.5,36 215.7,38.1 			"/>
		</g>
		<path class="st0" d="M252,51.7h-8.3l11.9-30.1h6.6l11.6,30.1h-8.4l-1.4-4.4h-10.5L252,51.7z M258.6,30.8l-3.3,10.5h6.6L258.6,30.8
			z"/>
		<path class="st0" d="M276.9,21.6h9.8c4.7,0,7.6,0.9,9.3,2.2c2.5,2,3.7,4.9,3.7,8.2c0,2.3-0.7,4.1-1.5,5.5c-1,1.6-2.5,2.6-3.9,3.2
			l6.2,11.1h-7.9l-7.9-14.5h1.3c2,0,3.6-0.2,4.6-0.8c0.9-0.6,1.7-2,1.7-3.7c0-1.6-0.8-2.8-1.8-3.5c-0.9-0.5-2.1-0.8-3.1-0.8h-2.8
			v23.4h-7.7V21.6z"/>
		<path class="st1" d="M324.4,31.8c-0.4-0.7-0.9-1.4-1.5-2c-1.2-1.1-2.8-1.8-4.8-1.8c-3.6,0-7.9,2.7-7.9,8.4c0,6.1,4.3,8.7,7.9,8.7
			c1.8,0,3.4-0.5,4.5-1.3c1.2-0.8,2-2,2.4-3.4h-8.6v-5.9h17.1c0.2,2.1-0.1,5.5-1.3,8.3c-2.8,6.4-9.3,8.7-14.1,8.7
			c-8.7,0-15.3-6.8-15.3-15.1c0-8.6,6.9-14.9,15.5-14.9c6.9,0,12.8,4.6,14.4,10.2H324.4z"/>
		<path class="st1" d="M337.5,36.9c0-9.4,7.3-15.3,15.2-15.3c8.9,0,15.3,6.9,15.3,15c0,8-6.3,15-15.3,15
			C343.6,51.6,337.5,44.4,337.5,36.9L337.5,36.9z M344.9,36.6c0,4.4,3,8.5,8,8.5c5.2,0,7.8-4.8,7.8-8.5c0-3.7-2.5-8.5-7.8-8.5
			C347.7,28.1,344.9,32.5,344.9,36.6L344.9,36.6z"/>
		<path class="st1" d="M378.9,41.5c0,3.4,2.1,4,3,4c1.8,0,2.8-1.4,2.8-2.8c0-1.5-1.2-2-5.7-3.9c-2-0.8-7.1-2.9-7.1-8.3
			c0-5.8,5.3-8.9,10.1-8.9c4,0,9.6,2,9.7,9h-7.3c-0.2-1-0.4-2.8-2.7-2.8c-1.3,0-2.5,0.9-2.5,2.3c0,1.3,0.8,1.7,6,4
			c5.4,2.4,6.8,4.9,6.8,8.3c0,4.6-2.4,9.3-10.1,9.3c-7.6,0-10.6-4.5-10.5-10.1H378.9z"/>
		<path class="st0" d="M62.6,23.2h-2.5l0.3-1.5h6.8l-0.3,1.5h-2.5l-1.7,9.4h-1.7L62.6,23.2z"/>
		<path class="st0" d="M69.8,21.7h6.1l-0.3,1.5h-4.4l-0.6,3.1H75l-0.3,1.5h-4.3l-0.6,3.2h4.4l-0.3,1.5h-6.1L69.8,21.7z"/>
		<path class="st0" d="M88.2,29.3c-1,2-3.4,3.5-5.9,3.5c-3.3,0-5.2-2.6-4.7-5.7c0.5-3,3.4-5.7,6.8-5.7c2.9,0,4.3,2.1,4.6,3.6h-1.8
			c-0.2-0.7-1.1-2-3-2.1c-2.3,0-4.3,1.9-4.7,4.1c-0.4,2.3,0.9,4.2,3.2,4.2c2.1,0,3.4-1.6,3.7-2H88.2z"/>
		<path class="st0" d="M98.4,30l1.5-8.3h1.7l-2,10.9H98l-4.2-8.3l-1.5,8.3h-1.7l2-10.9h1.6L98.4,30z"/>
		<path class="st0" d="M103.7,27.2c0.6-3.4,3.7-5.7,6.8-5.7c3.3,0,5.3,2.5,4.7,5.7c-0.6,3.1-3.5,5.7-6.8,5.7
			C105.1,32.8,103.2,30.3,103.7,27.2L103.7,27.2z M105.5,27.2c-0.4,2.3,0.9,4.1,3.3,4.1c2.4,0,4.3-2,4.7-4.1
			c0.4-2.1-0.8-4.2-3.2-4.2C107.8,23,105.9,25,105.5,27.2L105.5,27.2z"/>
		<path class="st0" d="M119.3,21.7h1.7l-1.7,9.4h3.9l-0.3,1.5h-5.6L119.3,21.7z"/>
		<path class="st0" d="M125.3,27.2c0.6-3.4,3.7-5.7,6.8-5.7c3.3,0,5.3,2.5,4.7,5.7c-0.6,3.1-3.5,5.7-6.8,5.7
			C126.6,32.8,124.7,30.3,125.3,27.2L125.3,27.2z M127,27.2c-0.4,2.3,0.9,4.1,3.3,4.1c2.4,0,4.3-2,4.7-4.1c0.4-2.1-0.8-4.2-3.2-4.2
			C129.4,23,127.4,25,127,27.2L127,27.2z M134.4,18.1l0.3,1.1l-3.9,1.8l-0.3-0.9L134.4,18.1z"/>
		<path class="st0" d="M148.8,24.8c-0.2-0.4-0.5-0.8-0.8-1c-0.5-0.5-1.3-0.7-2.2-0.7c-2.1,0-4.3,1.6-4.8,4.1
			c-0.5,2.6,1.2,4.2,3.2,4.2c1,0,1.9-0.3,2.7-0.8c0.8-0.5,1.3-1.2,1.6-2h-4.7l0.3-1.4h6.7c-0.1,0.7-0.4,1.6-0.9,2.5
			c-1.4,2.2-3.9,3.3-5.9,3.3c-3.2,0-5.3-2.5-4.7-5.7c0.6-3.3,3.6-5.6,6.8-5.6c2.3,0,4.2,1.4,4.6,3.3H148.8z"/>
		<path class="st0" d="M154.9,21.7h1.7l-2,10.9h-1.7L154.9,21.7z"/>
		<path class="st0" d="M169.3,29.3c-1,2-3.4,3.5-5.9,3.5c-3.3,0-5.2-2.6-4.7-5.7c0.5-3,3.4-5.7,6.8-5.7c2.9,0,4.3,2.1,4.6,3.6h-1.8
			c-0.2-0.7-1.1-2-3-2.1c-2.3,0-4.3,1.9-4.7,4.1c-0.4,2.3,0.9,4.2,3.2,4.2c2.1,0,3.4-1.6,3.7-2H169.3z"/>
		<path class="st0" d="M172.2,27.2c0.6-3.4,3.7-5.7,6.8-5.7c3.3,0,5.3,2.5,4.7,5.7c-0.6,3.1-3.5,5.7-6.8,5.7
			C173.6,32.8,171.7,30.3,172.2,27.2L172.2,27.2z M174,27.2c-0.4,2.3,0.9,4.1,3.3,4.1c2.4,0,4.3-2,4.7-4.1c0.4-2.1-0.8-4.2-3.2-4.2
			C176.4,23,174.4,25,174,27.2L174,27.2z"/>
		<path class="st0" d="M9.9,35.5l-1.8,9.7C8,45.8,7.9,46.5,8,47.2c0.2,0.6,0.6,1.1,1.6,1.1c1,0,1.6-0.5,2-1c0.4-0.6,0.5-1.4,0.6-2
			l1.8-9.7h4.1l-1.8,9.7c-0.5,2.7-1.3,3.9-2.5,4.9c-1.2,1.1-2.8,1.7-4.8,1.7c-1.2,0-3.2-0.3-4.3-1.7c-1.1-1.5-1.1-2.6-0.7-5l1.8-9.7
			H9.9z"/>
		<path class="st0" d="M30.2,45.3l1.7-9.8h3.9l-3,16.1h-3.6L25,41.9l-1.7,9.7h-3.9l3-16.1h3.5L30.2,45.3z"/>
		<path class="st0" d="M40.1,35.5h4.1l-3,16.1h-4.1L40.1,35.5z"/>
		<path class="st0" d="M47.3,35.5h4.2l1.2,11.3l5.4-11.3h4.2L54,51.6h-4.2L47.3,35.5z"/>
		<path class="st0" d="M65.5,35.5h9.1l-0.7,3.6h-5l-0.5,2.5h4.9l-0.7,3.6h-4.9L67.3,48h5l-0.7,3.6h-9.1L65.5,35.5z"/>
		<path class="st0" d="M78.2,35.5h5.3c2.5,0,4,0.5,4.8,1.2c1.2,1,1.5,2.6,1.2,4.4c-0.2,1.2-0.8,2.2-1.3,2.9
			c-0.7,0.8-1.6,1.4-2.4,1.7l2.2,5.9h-4.2l-2.8-7.8h0.7c1,0,2-0.1,2.6-0.4c0.6-0.3,1.1-1.1,1.3-2c0.2-0.8-0.1-1.5-0.6-1.9
			c-0.4-0.3-1-0.4-1.6-0.4h-1.5l-2.3,12.5h-4.1L78.2,35.5z"/>
		<path class="st0" d="M94.9,46.3c-0.3,1.9,0.8,2.2,1.3,2.2c1,0,1.7-0.8,1.8-1.5c0.2-0.8-0.5-1.1-2.8-2.2c-1-0.5-3.6-1.6-3.1-4.6
			c0.6-3.2,3.9-5,6.6-5c2.2,0,5.1,1.1,4.5,5h-4.1c0-0.5,0.1-1.6-1.2-1.6c-0.7,0-1.5,0.5-1.6,1.3c-0.2,0.7,0.3,0.9,2.9,2.2
			c2.7,1.3,3.2,2.7,2.9,4.6c-0.5,2.6-2.3,5.2-6.6,5.2c-4.2,0-5.4-2.5-4.8-5.6H94.9z"/>
		<path class="st0" d="M107.5,35.5h4.1l-3,16.1h-4.1L107.5,35.5z"/>
		<path class="st0" d="M117.1,39.1h-3.2l0.7-3.6H125l-0.7,3.6h-3.2l-2.3,12.5h-4.1L117.1,39.1z"/>
		<path class="st0" d="M126.9,51.6h-4.5l9.4-16.1h3.5l3.2,16.1h-4.5l-0.3-2.3h-5.6L126.9,51.6z M132.5,40.4l-2.8,5.6h3.5L132.5,40.4
			z"/>
		<path class="st0" d="M144.5,35.5h5.3c2.5,0,4,0.5,4.8,1.2c1.2,1,1.5,2.6,1.2,4.4c-0.2,1.2-0.8,2.2-1.3,2.9
			c-0.7,0.8-1.6,1.4-2.4,1.7l2.2,5.9h-4.2l-2.8-7.8h0.7c1,0,2-0.1,2.6-0.4c0.6-0.3,1.1-1.1,1.3-2c0.2-0.8-0.1-1.5-0.6-1.9
			c-0.4-0.3-1-0.4-1.6-0.4h-1.5l-2.3,12.5h-4.1L144.5,35.5z"/>
		<path class="st0" d="M160,35.5h4.1l-3,16.1H157L160,35.5z"/>
		<path class="st0" d="M166.1,43.7c1-5.3,5.6-8.5,10.1-8.5c5,0,7.8,3.9,7,8.4c-0.8,4.5-5.1,8.4-10.1,8.4
			C168,51.9,165.4,47.9,166.1,43.7L166.1,43.7z M170.3,43.5c-0.5,2.5,0.8,4.8,3.5,4.8c2.9,0,4.8-2.7,5.2-4.7
			c0.4-2.1-0.5-4.8-3.5-4.8C172.7,38.8,170.7,41.3,170.3,43.5L170.3,43.5z"/>
	</g>
	<g>
		<path class="st0" d="M398.6,49.1c0,1.4-1.1,2.6-2.6,2.6c-1.4,0-2.6-1.1-2.6-2.6c0-1.4,1.2-2.5,2.6-2.5
			C397.4,46.6,398.6,47.7,398.6,49.1z M394,49.1c0,1.1,0.8,2,2,2c1.1,0,1.9-0.9,1.9-2c0-1.1-0.8-2-1.9-2S394,48,394,49.1z
			 M395.6,50.4H395v-2.5c0.2,0,0.6-0.1,1-0.1c0.5,0,0.7,0.1,0.9,0.2c0.1,0.1,0.2,0.3,0.2,0.6c0,0.3-0.2,0.5-0.5,0.6v0
			c0.2,0.1,0.4,0.3,0.5,0.6c0.1,0.4,0.1,0.5,0.2,0.6h-0.6c-0.1-0.1-0.1-0.3-0.2-0.6c0-0.3-0.2-0.4-0.5-0.4h-0.3V50.4z M395.6,49h0.3
			c0.3,0,0.6-0.1,0.6-0.4c0-0.2-0.2-0.4-0.5-0.4c-0.2,0-0.3,0-0.3,0V49z"/>
	</g>
</g>
</svg>
