<svg xmlns="http://www.w3.org/2000/svg" id="Capa_1" viewBox="0 0 550 280"><g><path d="M210.42,62.89h-5.94v-11.88h12.18v11.88h-6.23ZM204.48,79.24v-5.94h11.88v142.55h-11.88V79.24Z" fill="#009fe3"></path><path d="M257.23,85.18h-5.94v-11.88h100.38l-6.24,9.21-82.86,121.47h89.69v11.88h-112.26l6.23-9.21,82.86-121.47h-71.87Z" fill="#009fe3"></path><path d="M377.11,13.9v-5.94h11.88v207.89h-11.88V13.9Z" fill="#009fe3"></path><path d="M410.01,144.57c0-39.8,29.7-71.28,65.33-71.28s65.33,31.48,65.33,71.28-29.7,71.27-65.33,71.27-65.33-31.48-65.33-71.27ZM421.89,144.57c0,32.67,23.76,59.4,53.46,59.4s53.46-26.73,53.46-59.4-23.76-59.4-53.46-59.4-53.46,26.73-53.46,59.4Z" fill="#009fe3"></path></g><g><path d="M168.18,273H17.12l5.72-9.1c15.2-24.19,41.3-38.63,69.81-38.63s54.61,14.44,69.81,38.63l5.72,9.1ZM39.66,261.12h105.97c-13.29-15.18-32.4-23.97-52.99-23.97s-39.7,8.8-52.99,23.97Z" fill="#70b62c"></path><path d="M136.06,63.18h33.98v-11.88h-76.56c-45.44,0-82.42,36.97-82.42,82.42s36.97,82.42,82.42,82.42,82.42-36.97,82.42-82.42c0-29.88-15.98-56.09-39.84-70.54ZM93.49,204.26c-38.9,0-70.54-31.64-70.54-70.54S54.59,63.18,93.49,63.18s70.54,31.65,70.54,70.54-31.65,70.54-70.54,70.54Z" fill="#70b62c"></path></g></svg>